<?xml version="1.0" encoding="UTF-8" standalone="no"?>
<!DOCTYPE svg PUBLIC "-//W3C//DTD SVG 1.1//EN" "http://www.w3.org/Graphics/SVG/1.1/DTD/svg11.dtd">
<svg xmlns="http://www.w3.org/2000/svg" version="1.1" viewBox="0.00 0.00 1024.00 1024.00">
<g stroke-width="2.00" fill="none" stroke-linecap="butt">
<path stroke="#2a3139" vector-effect="non-scaling-stroke" d="
  M 328.84 658.83
  L 329.03 661.35
  A 2.98 2.98 0.0 0 0 330.74 663.83
  Q 333.55 665.16 335.85 667.35
  C 336.57 668.04 337.61 668.29 338.31 669.01
  Q 343.36 674.19 347.56 679.80
  Q 348.09 680.51 348.25 681.40
  Q 348.37 682.04 349.02 682.11
  Q 349.87 682.21 349.86 683.08
  Q 349.86 683.53 350.28 683.70
  Q 351.44 684.19 351.21 685.44
  Q 351.12 685.92 351.48 686.24
  Q 353.76 688.22 354.08 691.04
  Q 354.14 691.52 354.48 691.87
  Q 355.14 692.53 355.31 693.45
  Q 355.44 694.08 356.02 694.35
  L 356.93 694.77
  Q 357.38 694.98 357.55 695.46
  Q 357.65 695.75 357.92 695.94
  Q 358.37 696.24 358.75 695.86
  Q 359.64 694.97 360.23 693.71"
/>
<path stroke="#989ca0" vector-effect="non-scaling-stroke" d="
  M 360.23 693.71
  Q 358.80 700.34 361.50 703.96
  Q 363.47 706.59 370.99 712.05
  Q 387.29 723.89 406.30 732.71
  C 452.67 754.24 504.03 762.30 554.15 754.06
  Q 584.92 749.00 612.41 737.70
  Q 629.83 730.54 642.74 722.84
  Q 671.76 705.53 691.51 686.16
  C 704.58 673.34 717.24 657.96 727.51 641.60
  Q 733.65 631.80 739.76 619.65
  Q 740.77 617.66 740.32 615.39
  Q 740.00 613.76 738.35 613.32"
/>
<path stroke="#2a3139" vector-effect="non-scaling-stroke" d="
  M 738.35 613.32
  Q 741.91 612.58 742.05 607.01
  Q 742.06 606.35 743.00 604.91
  Q 743.77 603.74 743.93 602.86
  Q 744.53 599.71 744.13 596.78
  Q 743.78 594.16 744.64 591.49
  Q 745.41 589.07 745.70 586.45
  Q 746.34 580.58 748.89 574.92
  A 1.49 1.45 -37.7 0 0 749.01 574.07
  Q 748.89 573.25 749.39 572.63
  Q 750.59 571.17 748.70 571.41
  Q 746.01 571.76 743.67 571.55
  Q 741.44 571.35 743.67 571.25
  L 748.21 571.06"
/>
<path stroke="#989ca0" vector-effect="non-scaling-stroke" d="
  M 748.21 571.06
  Q 754.36 570.82 756.96 566.68
  Q 758.50 564.24 758.63 558.06
  Q 758.91 544.55 758.61 539.01
  Q 758.38 534.79 754.54 533.31"
/>
<path stroke="#2a3139" vector-effect="non-scaling-stroke" d="
  M 754.54 533.31
  Q 754.90 533.35 755.13 533.27
  Q 755.60 533.10 755.22 532.79
  Q 754.82 532.47 755.06 532.14
  Q 755.17 523.59 754.82 515.04
  Q 754.65 510.74 754.96 507.47
  Q 755.33 503.69 755.85 499.95
  Q 755.95 499.27 756.27 498.69
  Q 756.65 497.99 756.42 497.26
  Q 756.25 496.75 756.36 496.21
  C 756.62 494.96 757.04 493.75 757.08 492.50
  Q 757.16 489.24 757.68 486.00
  Q 757.87 484.84 757.17 484.04
  Q 756.88 483.71 756.88 483.27
  L 756.88 482.17
  Q 756.88 481.61 756.33 481.51
  Q 755.59 481.38 755.24 481.05"
/>
<path stroke="#989ca0" vector-effect="non-scaling-stroke" d="
  M 755.24 481.05
  C 758.03 479.92 758.06 477.57 757.70 475.00
  Q 756.40 465.93 754.05 457.20
  Q 747.11 431.34 736.43 410.18
  Q 715.44 368.55 682.96 338.06
  Q 642.08 299.68 587.99 283.04
  Q 552.62 272.15 514.72 272.49
  Q 502.03 272.60 486.52 274.47
  Q 435.32 280.63 389.97 306.61
  Q 362.03 322.62 338.74 346.27
  Q 329.77 355.38 327.33 358.53
  Q 316.35 372.70 306.71 386.33
  Q 304.50 389.47 303.13 392.36
  Q 301.63 395.54 299.83 398.58
  Q 291.40 412.81 284.51 429.99
  Q 281.41 437.73 281.12 438.68
  C 278.64 446.97 276.91 455.10 274.53 463.88
  Q 272.02 473.15 270.84 484.55
  Q 268.68 505.30 269.02 527.47
  Q 269.16 537.13 270.41 546.99
  Q 273.00 567.43 277.36 581.78
  Q 281.66 595.92 285.80 606.72
  Q 297.75 637.84 318.97 664.80
  Q 320.38 666.59 322.52 667.01
  Q 324.78 667.45 325.47 665.95
  Q 327.06 662.50 328.84 658.83"
/>
<path stroke="#929598" vector-effect="non-scaling-stroke" d="
  M 755.24 481.05
  Q 732.43 481.45 725.88 481.15
  Q 721.18 480.93 720.01 476.63
  Q 718.17 469.89 716.41 462.50
  C 714.27 453.51 711.26 444.56 707.60 436.35
  Q 690.72 398.43 659.92 368.16
  C 641.04 349.60 618.31 334.67 592.60 324.38
  Q 550.90 307.70 506.75 309.79
  Q 481.69 310.97 460.51 316.95
  Q 430.30 325.48 401.67 343.48
  Q 388.76 351.60 378.38 360.92
  Q 377.52 361.70 377.02 362.52
  A 0.63 0.62 -74.8 0 0 377.56 363.47
  Q 494.93 363.12 600.18 363.52
  Q 602.90 363.53 605.32 364.84
  C 609.46 367.07 608.85 370.50 608.85 374.31
  Q 608.82 386.27 608.86 398.14
  Q 608.87 401.44 605.56 401.44
  Q 479.79 401.23 364.75 401.39
  Q 354.81 401.41 344.49 401.51
  A 1.78 1.76 18.8 0 0 343.13 402.17
  Q 328.84 420.02 320.81 442.47
  Q 320.56 443.16 321.25 443.40
  Q 321.53 443.50 321.84 443.50
  Q 456.73 443.23 602.81 443.35
  C 606.13 443.35 608.78 445.21 608.81 448.64
  Q 608.89 461.27 608.93 474.79
  C 608.93 477.93 608.60 481.24 604.50 481.24
  Q 457.90 481.25 310.82 481.26
  A 1.00 0.99 -81.8 0 0 309.87 481.98
  Q 309.18 484.32 308.80 486.83
  Q 301.66 534.21 315.32 579.29
  Q 318.22 588.83 322.35 598.41
  Q 331.93 620.64 345.50 640.48
  Q 346.99 642.66 345.02 643.73
  Q 334.61 649.44 328.84 658.83"
/>
<path stroke="#929598" vector-effect="non-scaling-stroke" d="
  M 754.54 533.31
  Q 752.50 532.97 750.50 532.97
  Q 570.96 532.70 420.24 532.76
  Q 416.18 532.76 414.52 533.41
  C 410.22 535.10 409.18 539.60 409.29 543.90
  Q 409.53 553.58 409.54 563.82
  C 409.54 571.43 416.31 570.91 421.75 570.92
  C 531.28 571.01 639.92 570.93 748.21 571.06"
/>
<path stroke="#929598" vector-effect="non-scaling-stroke" d="
  M 738.35 613.32
  Q 576.60 613.20 415.00 613.23
  Q 411.68 613.23 409.96 615.56
  Q 409.66 615.96 409.65 616.46
  Q 409.44 629.36 409.73 643.65
  C 409.84 649.14 413.76 651.31 418.80 651.33
  Q 543.78 651.65 668.26 651.40
  Q 668.99 651.40 669.64 651.49
  A 0.75 0.75 0.0 0 1 670.03 652.80
  C 664.69 657.43 659.83 662.45 654.67 667.03
  C 650.12 671.06 645.77 675.11 641.04 678.72
  C 609.67 702.72 570.43 716.00 530.87 719.31
  C 484.69 723.16 437.70 710.51 398.17 686.30
  Q 392.82 683.03 387.77 679.90
  Q 385.56 678.54 383.01 678.28
  C 372.85 677.23 363.08 683.98 360.23 693.71"
/>
</g>
<path fill="rgba(0,0,0,0)" d="
  M 0.00 0.00
  L 1024.00 0.00
  L 1024.00 1024.00
  L 0.00 1024.00
  L 0.00 0.00
  Z
  M 328.84 658.83
  L 329.03 661.35
  A 2.98 2.98 0.0 0 0 330.74 663.83
  Q 333.55 665.16 335.85 667.35
  C 336.57 668.04 337.61 668.29 338.31 669.01
  Q 343.36 674.19 347.56 679.80
  Q 348.09 680.51 348.25 681.40
  Q 348.37 682.04 349.02 682.11
  Q 349.87 682.21 349.86 683.08
  Q 349.86 683.53 350.28 683.70
  Q 351.44 684.19 351.21 685.44
  Q 351.12 685.92 351.48 686.24
  Q 353.76 688.22 354.08 691.04
  Q 354.14 691.52 354.48 691.87
  Q 355.14 692.53 355.31 693.45
  Q 355.44 694.08 356.02 694.35
  L 356.93 694.77
  Q 357.38 694.98 357.55 695.46
  Q 357.65 695.75 357.92 695.94
  Q 358.37 696.24 358.75 695.86
  Q 359.64 694.97 360.23 693.71
  Q 358.80 700.34 361.50 703.96
  Q 363.47 706.59 370.99 712.05
  Q 387.29 723.89 406.30 732.71
  C 452.67 754.24 504.03 762.30 554.15 754.06
  Q 584.92 749.00 612.41 737.70
  Q 629.83 730.54 642.74 722.84
  Q 671.76 705.53 691.51 686.16
  C 704.58 673.34 717.24 657.96 727.51 641.60
  Q 733.65 631.80 739.76 619.65
  Q 740.77 617.66 740.32 615.39
  Q 740.00 613.76 738.35 613.32
  Q 741.91 612.58 742.05 607.01
  Q 742.06 606.35 743.00 604.91
  Q 743.77 603.74 743.93 602.86
  Q 744.53 599.71 744.13 596.78
  Q 743.78 594.16 744.64 591.49
  Q 745.41 589.07 745.70 586.45
  Q 746.34 580.58 748.89 574.92
  A 1.49 1.45 -37.7 0 0 749.01 574.07
  Q 748.89 573.25 749.39 572.63
  Q 750.59 571.17 748.70 571.41
  Q 746.01 571.76 743.67 571.55
  Q 741.44 571.35 743.67 571.25
  L 748.21 571.06
  Q 754.36 570.82 756.96 566.68
  Q 758.50 564.24 758.63 558.06
  Q 758.91 544.55 758.61 539.01
  Q 758.38 534.79 754.54 533.31
  Q 754.90 533.35 755.13 533.27
  Q 755.60 533.10 755.22 532.79
  Q 754.82 532.47 755.06 532.14
  Q 755.17 523.59 754.82 515.04
  Q 754.65 510.74 754.96 507.47
  Q 755.33 503.69 755.85 499.95
  Q 755.95 499.27 756.27 498.69
  Q 756.65 497.99 756.42 497.26
  Q 756.25 496.75 756.36 496.21
  C 756.62 494.96 757.04 493.75 757.08 492.50
  Q 757.16 489.24 757.68 486.00
  Q 757.87 484.84 757.17 484.04
  Q 756.88 483.71 756.88 483.27
  L 756.88 482.17
  Q 756.88 481.61 756.33 481.51
  Q 755.59 481.38 755.24 481.05
  C 758.03 479.92 758.06 477.57 757.70 475.00
  Q 756.40 465.93 754.05 457.20
  Q 747.11 431.34 736.43 410.18
  Q 715.44 368.55 682.96 338.06
  Q 642.08 299.68 587.99 283.04
  Q 552.62 272.15 514.72 272.49
  Q 502.03 272.60 486.52 274.47
  Q 435.32 280.63 389.97 306.61
  Q 362.03 322.62 338.74 346.27
  Q 329.77 355.38 327.33 358.53
  Q 316.35 372.70 306.71 386.33
  Q 304.50 389.47 303.13 392.36
  Q 301.63 395.54 299.83 398.58
  Q 291.40 412.81 284.51 429.99
  Q 281.41 437.73 281.12 438.68
  C 278.64 446.97 276.91 455.10 274.53 463.88
  Q 272.02 473.15 270.84 484.55
  Q 268.68 505.30 269.02 527.47
  Q 269.16 537.13 270.41 546.99
  Q 273.00 567.43 277.36 581.78
  Q 281.66 595.92 285.80 606.72
  Q 297.75 637.84 318.97 664.80
  Q 320.38 666.59 322.52 667.01
  Q 324.78 667.45 325.47 665.95
  Q 327.06 662.50 328.84 658.83
  Z"
/>
<path fill="rgba(0,0,0,1)" d="
  M 755.24 481.05
  Q 732.43 481.45 725.88 481.15
  Q 721.18 480.93 720.01 476.63
  Q 718.17 469.89 716.41 462.50
  C 714.27 453.51 711.26 444.56 707.60 436.35
  Q 690.72 398.43 659.92 368.16
  C 641.04 349.60 618.31 334.67 592.60 324.38
  Q 550.90 307.70 506.75 309.79
  Q 481.69 310.97 460.51 316.95
  Q 430.30 325.48 401.67 343.48
  Q 388.76 351.60 378.38 360.92
  Q 377.52 361.70 377.02 362.52
  A 0.63 0.62 -74.8 0 0 377.56 363.47
  Q 494.93 363.12 600.18 363.52
  Q 602.90 363.53 605.32 364.84
  C 609.46 367.07 608.85 370.50 608.85 374.31
  Q 608.82 386.27 608.86 398.14
  Q 608.87 401.44 605.56 401.44
  Q 479.79 401.23 364.75 401.39
  Q 354.81 401.41 344.49 401.51
  A 1.78 1.76 18.8 0 0 343.13 402.17
  Q 328.84 420.02 320.81 442.47
  Q 320.56 443.16 321.25 443.40
  Q 321.53 443.50 321.84 443.50
  Q 456.73 443.23 602.81 443.35
  C 606.13 443.35 608.78 445.21 608.81 448.64
  Q 608.89 461.27 608.93 474.79
  C 608.93 477.93 608.60 481.24 604.50 481.24
  Q 457.90 481.25 310.82 481.26
  A 1.00 0.99 -81.8 0 0 309.87 481.98
  Q 309.18 484.32 308.80 486.83
  Q 301.66 534.21 315.32 579.29
  Q 318.22 588.83 322.35 598.41
  Q 331.93 620.64 345.50 640.48
  Q 346.99 642.66 345.02 643.73
  Q 334.61 649.44 328.84 658.83
  Q 327.06 662.50 325.47 665.95
  Q 324.78 667.45 322.52 667.01
  Q 320.38 666.59 318.97 664.80
  Q 297.75 637.84 285.80 606.72
  Q 281.66 595.92 277.36 581.78
  Q 273.00 567.43 270.41 546.99
  Q 269.16 537.13 269.02 527.47
  Q 268.68 505.30 270.84 484.55
  Q 272.02 473.15 274.53 463.88
  C 276.91 455.10 278.64 446.97 281.12 438.68
  Q 281.41 437.73 284.51 429.99
  Q 291.40 412.81 299.83 398.58
  Q 301.63 395.54 303.13 392.36
  Q 304.50 389.47 306.71 386.33
  Q 316.35 372.70 327.33 358.53
  Q 329.77 355.38 338.74 346.27
  Q 362.03 322.62 389.97 306.61
  Q 435.32 280.63 486.52 274.47
  Q 502.03 272.60 514.72 272.49
  Q 552.62 272.15 587.99 283.04
  Q 642.08 299.68 682.96 338.06
  Q 715.44 368.55 736.43 410.18
  Q 747.11 431.34 754.05 457.20
  Q 756.40 465.93 757.70 475.00
  C 758.06 477.57 758.03 479.92 755.24 481.05
  Z"
/>
<path fill="rgba(0,0,0,0)" d="
  M 755.24 481.05
  Q 755.59 481.38 756.33 481.51
  Q 756.88 481.61 756.88 482.17
  L 756.88 483.27
  Q 756.88 483.71 757.17 484.04
  Q 757.87 484.84 757.68 486.00
  Q 757.16 489.24 757.08 492.50
  C 757.04 493.75 756.62 494.96 756.36 496.21
  Q 756.25 496.75 756.42 497.26
  Q 756.65 497.99 756.27 498.69
  Q 755.95 499.27 755.85 499.95
  Q 755.33 503.69 754.96 507.47
  Q 754.65 510.74 754.82 515.04
  Q 755.17 523.59 755.06 532.14
  Q 754.82 532.47 755.22 532.79
  Q 755.60 533.10 755.13 533.27
  Q 754.90 533.35 754.54 533.31
  Q 752.50 532.97 750.50 532.97
  Q 570.96 532.70 420.24 532.76
  Q 416.18 532.76 414.52 533.41
  C 410.22 535.10 409.18 539.60 409.29 543.90
  Q 409.53 553.58 409.54 563.82
  C 409.54 571.43 416.31 570.91 421.75 570.92
  C 531.28 571.01 639.92 570.93 748.21 571.06
  L 743.67 571.25
  Q 741.44 571.35 743.67 571.55
  Q 746.01 571.76 748.70 571.41
  Q 750.59 571.17 749.39 572.63
  Q 748.89 573.25 749.01 574.07
  A 1.49 1.45 -37.7 0 1 748.89 574.92
  Q 746.34 580.58 745.70 586.45
  Q 745.41 589.07 744.64 591.49
  Q 743.78 594.16 744.13 596.78
  Q 744.53 599.71 743.93 602.86
  Q 743.77 603.74 743.00 604.91
  Q 742.06 606.35 742.05 607.01
  Q 741.91 612.58 738.35 613.32
  Q 576.60 613.20 415.00 613.23
  Q 411.68 613.23 409.96 615.56
  Q 409.66 615.96 409.65 616.46
  Q 409.44 629.36 409.73 643.65
  C 409.84 649.14 413.76 651.31 418.80 651.33
  Q 543.78 651.65 668.26 651.40
  Q 668.99 651.40 669.64 651.49
  A 0.75 0.75 0.0 0 1 670.03 652.80
  C 664.69 657.43 659.83 662.45 654.67 667.03
  C 650.12 671.06 645.77 675.11 641.04 678.72
  C 609.67 702.72 570.43 716.00 530.87 719.31
  C 484.69 723.16 437.70 710.51 398.17 686.30
  Q 392.82 683.03 387.77 679.90
  Q 385.56 678.54 383.01 678.28
  C 372.85 677.23 363.08 683.98 360.23 693.71
  Q 359.64 694.97 358.75 695.86
  Q 358.37 696.24 357.92 695.94
  Q 357.65 695.75 357.55 695.46
  Q 357.38 694.98 356.93 694.77
  L 356.02 694.35
  Q 355.44 694.08 355.31 693.45
  Q 355.14 692.53 354.48 691.87
  Q 354.14 691.52 354.08 691.04
  Q 353.76 688.22 351.48 686.24
  Q 351.12 685.92 351.21 685.44
  Q 351.44 684.19 350.28 683.70
  Q 349.86 683.53 349.86 683.08
  Q 349.87 682.21 349.02 682.11
  Q 348.37 682.04 348.25 681.40
  Q 348.09 680.51 347.56 679.80
  Q 343.36 674.19 338.31 669.01
  C 337.61 668.29 336.57 668.04 335.85 667.35
  Q 333.55 665.16 330.74 663.83
  A 2.98 2.98 0.0 0 1 329.03 661.35
  L 328.84 658.83
  Q 334.61 649.44 345.02 643.73
  Q 346.99 642.66 345.50 640.48
  Q 331.93 620.64 322.35 598.41
  Q 318.22 588.83 315.32 579.29
  Q 301.66 534.21 308.80 486.83
  Q 309.18 484.32 309.87 481.98
  A 1.00 0.99 -81.8 0 1 310.82 481.26
  Q 457.90 481.25 604.50 481.24
  C 608.60 481.24 608.93 477.93 608.93 474.79
  Q 608.89 461.27 608.81 448.64
  C 608.78 445.21 606.13 443.35 602.81 443.35
  Q 456.73 443.23 321.84 443.50
  Q 321.53 443.50 321.25 443.40
  Q 320.56 443.16 320.81 442.47
  Q 328.84 420.02 343.13 402.17
  A 1.78 1.76 18.8 0 1 344.49 401.51
  Q 354.81 401.41 364.75 401.39
  Q 479.79 401.23 605.56 401.44
  Q 608.87 401.44 608.86 398.14
  Q 608.82 386.27 608.85 374.31
  C 608.85 370.50 609.46 367.07 605.32 364.84
  Q 602.90 363.53 600.18 363.52
  Q 494.93 363.12 377.56 363.47
  A 0.63 0.62 -74.8 0 1 377.02 362.52
  Q 377.52 361.70 378.38 360.92
  Q 388.76 351.60 401.67 343.48
  Q 430.30 325.48 460.51 316.95
  Q 481.69 310.97 506.75 309.79
  Q 550.90 307.70 592.60 324.38
  C 618.31 334.67 641.04 349.60 659.92 368.16
  Q 690.72 398.43 707.60 436.35
  C 711.26 444.56 714.27 453.51 716.41 462.50
  Q 718.17 469.89 720.01 476.63
  Q 721.18 480.93 725.88 481.15
  Q 732.43 481.45 755.24 481.05
  Z"
/>
<path fill="rgba(0,0,0,1)" d="
  M 754.54 533.31
  Q 758.38 534.79 758.61 539.01
  Q 758.91 544.55 758.63 558.06
  Q 758.50 564.24 756.96 566.68
  Q 754.36 570.82 748.21 571.06
  C 639.92 570.93 531.28 571.01 421.75 570.92
  C 416.31 570.91 409.54 571.43 409.54 563.82
  Q 409.53 553.58 409.29 543.90
  C 409.18 539.60 410.22 535.10 414.52 533.41
  Q 416.18 532.76 420.24 532.76
  Q 570.96 532.70 750.50 532.97
  Q 752.50 532.97 754.54 533.31
  Z"
/>
<path fill="rgba(0,0,0,1)" d="
  M 738.35 613.32
  Q 740.00 613.76 740.32 615.39
  Q 740.77 617.66 739.76 619.65
  Q 733.65 631.80 727.51 641.60
  C 717.24 657.96 704.58 673.34 691.51 686.16
  Q 671.76 705.53 642.74 722.84
  Q 629.83 730.54 612.41 737.70
  Q 584.92 749.00 554.15 754.06
  C 504.03 762.30 452.67 754.24 406.30 732.71
  Q 387.29 723.89 370.99 712.05
  Q 363.47 706.59 361.50 703.96
  Q 358.80 700.34 360.23 693.71
  C 363.08 683.98 372.85 677.23 383.01 678.28
  Q 385.56 678.54 387.77 679.90
  Q 392.82 683.03 398.17 686.30
  C 437.70 710.51 484.69 723.16 530.87 719.31
  C 570.43 716.00 609.67 702.72 641.04 678.72
  C 645.77 675.11 650.12 671.06 654.67 667.03
  C 659.83 662.45 664.69 657.43 670.03 652.80
  A 0.75 0.75 0.0 0 0 669.64 651.49
  Q 668.99 651.40 668.26 651.40
  Q 543.78 651.65 418.80 651.33
  C 413.76 651.31 409.84 649.14 409.73 643.65
  Q 409.44 629.36 409.65 616.46
  Q 409.66 615.96 409.96 615.56
  Q 411.68 613.23 415.00 613.23
  Q 576.60 613.20 738.35 613.32
  Z"
/>
</svg>
