<?xml version="1.0" encoding="UTF-8" standalone="no"?>
<!DOCTYPE svg PUBLIC "-//W3C//DTD SVG 1.1//EN" "http://www.w3.org/Graphics/SVG/1.1/DTD/svg11.dtd">
<svg xmlns="http://www.w3.org/2000/svg" version="1.1" viewBox="0.00 0.00 492.00 469.00">
<g stroke-width="2.00" fill="none" stroke-linecap="butt">
<path stroke="#808080" vector-effect="non-scaling-stroke" d="
  M 118.96 91.46
  Q 117.66 91.47 118.64 90.62
  Q 145.16 67.66 177.51 55.21
  Q 190.86 50.07 196.26 48.64
  Q 241.95 36.47 286.16 45.33
  C 319.38 51.99 351.61 67.51 376.97 90.43
  Q 410.18 120.42 428.09 159.80
  Q 433.48 171.64 436.74 184.96
  Q 438.31 191.34 440.10 197.96
  Q 441.45 202.91 446.33 202.94
  Q 456.58 203.00 472.11 202.98
  C 475.37 202.98 476.98 200.14 476.49 197.04
  C 473.12 175.44 465.57 153.72 455.94 134.88
  C 445.70 114.87 433.71 97.34 419.17 81.26
  Q 376.59 34.21 315.99 15.74
  Q 275.27 3.33 233.42 6.56
  Q 207.06 8.60 183.73 15.35
  Q 122.18 33.13 78.28 78.92
  Q 71.76 85.72 65.37 94.06
  Q 55.39 107.09 49.91 116.08
  Q 40.27 131.87 30.58 154.58
  Q 27.34 162.18 24.63 172.61
  Q 20.56 188.31 18.98 198.13
  Q 15.61 218.99 16.24 247.46
  Q 16.81 272.94 24.29 298.28
  Q 28.02 310.91 32.35 321.86
  Q 43.60 350.29 63.38 375.60
  C 64.87 377.51 68.57 379.10 70.03 376.18
  Q 71.88 372.48 73.91 368.87
  C 77.14 363.10 82.52 359.49 88.14 355.85
  Q 90.48 354.33 88.83 351.95
  Q 76.13 333.61 66.81 311.83
  Q 62.75 302.36 60.25 293.66
  Q 47.40 248.88 55.21 203.49
  Q 55.30 202.97 55.83 202.97
  Q 193.75 202.97 332.06 202.97
  C 336.28 202.97 336.48 199.72 336.54 196.48
  Q 336.77 185.40 336.38 172.24
  Q 336.22 166.54 330.66 166.53
  Q 199.10 166.50 66.05 166.53
  Q 65.42 166.53 65.69 165.97
  C 68.11 160.84 69.94 155.56 72.58 150.52
  Q 78.70 138.84 86.87 128.26
  Q 87.11 127.96 87.49 127.96
  L 333.25 127.97
  Q 336.38 127.97 336.41 124.84
  Q 336.56 112.36 336.45 100.48
  Q 336.42 97.06 335.74 95.62
  C 334.29 92.57 330.34 91.28 327.25 91.27
  Q 214.27 91.17 120.75 91.46
  Q 119.86 91.46 118.96 91.46"
/>
<path stroke="#808080" vector-effect="non-scaling-stroke" d="
  M 463.54 287.76
  C 467.56 288.19 473.63 286.86 475.77 282.91
  Q 477.03 280.57 477.20 277.01
  Q 477.66 267.30 477.38 257.39
  Q 477.31 254.73 475.74 252.84
  C 474.40 251.22 469.43 250.79 467.37 250.79
  Q 392.81 250.74 318.25 250.50
  Q 315.84 250.49 313.75 250.49
  Q 237.94 250.51 162.13 250.53
  Q 155.13 250.53 152.85 251.50
  Q 148.12 253.50 148.03 260.16
  Q 147.87 271.67 148.26 281.19
  C 148.50 286.93 154.21 287.47 158.61 287.47
  Q 308.23 287.50 458.35 287.49
  Q 460.95 287.49 463.54 287.76"
/>
<path stroke="#808080" vector-effect="non-scaling-stroke" d="
  M 468.86 288.46
  Q 468.50 287.78 467.50 287.85
  Q 466.37 287.92 467.23 288.66
  Q 467.78 289.14 468.48 289.13
  Q 469.21 289.11 468.86 288.46"
/>
<path stroke="#808080" vector-effect="non-scaling-stroke" d="
  M 393.31 363.51
  C 383.30 372.83 373.17 382.90 362.18 390.75
  C 315.45 424.10 253.02 434.52 197.72 420.16
  Q 173.58 413.90 152.63 403.02
  Q 140.87 396.91 129.72 389.77
  C 127.09 388.09 124.10 387.00 120.99 387.30
  Q 108.00 388.55 102.47 400.35
  C 101.19 403.06 101.21 406.39 101.80 409.18
  C 102.70 413.47 108.25 417.20 111.71 419.63
  C 141.21 440.35 174.88 453.64 210.06 459.44
  C 261.09 467.85 314.33 458.40 360.18 434.57
  C 371.23 428.83 383.02 421.00 392.92 413.59
  C 420.76 392.77 443.99 364.62 459.59 332.79
  C 460.70 330.54 460.71 326.26 457.27 326.26
  Q 279.88 326.25 155.09 326.26
  C 152.60 326.26 148.18 327.08 148.22 330.40
  Q 148.36 341.41 148.21 351.97
  C 148.12 357.91 149.72 362.96 156.50 362.96
  Q 274.30 362.98 393.10 362.97
  Q 393.90 362.97 393.31 363.51"
/>
</g>
<path fill="rgba(0,0,0,0)" d="
  M 0.00 0.00
  L 492.00 0.00
  L 492.00 469.00
  L 0.00 469.00
  L 0.00 0.00
  Z
  M 118.96 91.46
  Q 117.66 91.47 118.64 90.62
  Q 145.16 67.66 177.51 55.21
  Q 190.86 50.07 196.26 48.64
  Q 241.95 36.47 286.16 45.33
  C 319.38 51.99 351.61 67.51 376.97 90.43
  Q 410.18 120.42 428.09 159.80
  Q 433.48 171.64 436.74 184.96
  Q 438.31 191.34 440.10 197.96
  Q 441.45 202.91 446.33 202.94
  Q 456.58 203.00 472.11 202.98
  C 475.37 202.98 476.98 200.14 476.49 197.04
  C 473.12 175.44 465.57 153.72 455.94 134.88
  C 445.70 114.87 433.71 97.34 419.17 81.26
  Q 376.59 34.21 315.99 15.74
  Q 275.27 3.33 233.42 6.56
  Q 207.06 8.60 183.73 15.35
  Q 122.18 33.13 78.28 78.92
  Q 71.76 85.72 65.37 94.06
  Q 55.39 107.09 49.91 116.08
  Q 40.27 131.87 30.58 154.58
  Q 27.34 162.18 24.63 172.61
  Q 20.56 188.31 18.98 198.13
  Q 15.61 218.99 16.24 247.46
  Q 16.81 272.94 24.29 298.28
  Q 28.02 310.91 32.35 321.86
  Q 43.60 350.29 63.38 375.60
  C 64.87 377.51 68.57 379.10 70.03 376.18
  Q 71.88 372.48 73.91 368.87
  C 77.14 363.10 82.52 359.49 88.14 355.85
  Q 90.48 354.33 88.83 351.95
  Q 76.13 333.61 66.81 311.83
  Q 62.75 302.36 60.25 293.66
  Q 47.40 248.88 55.21 203.49
  Q 55.30 202.97 55.83 202.97
  Q 193.75 202.97 332.06 202.97
  C 336.28 202.97 336.48 199.72 336.54 196.48
  Q 336.77 185.40 336.38 172.24
  Q 336.22 166.54 330.66 166.53
  Q 199.10 166.50 66.05 166.53
  Q 65.42 166.53 65.69 165.97
  C 68.11 160.84 69.94 155.56 72.58 150.52
  Q 78.70 138.84 86.87 128.26
  Q 87.11 127.96 87.49 127.96
  L 333.25 127.97
  Q 336.38 127.97 336.41 124.84
  Q 336.56 112.36 336.45 100.48
  Q 336.42 97.06 335.74 95.62
  C 334.29 92.57 330.34 91.28 327.25 91.27
  Q 214.27 91.17 120.75 91.46
  Q 119.86 91.46 118.96 91.46
  Z
  M 463.54 287.76
  C 467.56 288.19 473.63 286.86 475.77 282.91
  Q 477.03 280.57 477.20 277.01
  Q 477.66 267.30 477.38 257.39
  Q 477.31 254.73 475.74 252.84
  C 474.40 251.22 469.43 250.79 467.37 250.79
  Q 392.81 250.74 318.25 250.50
  Q 315.84 250.49 313.75 250.49
  Q 237.94 250.51 162.13 250.53
  Q 155.13 250.53 152.85 251.50
  Q 148.12 253.50 148.03 260.16
  Q 147.87 271.67 148.26 281.19
  C 148.50 286.93 154.21 287.47 158.61 287.47
  Q 308.23 287.50 458.35 287.49
  Q 460.95 287.49 463.54 287.76
  Z
  M 468.86 288.46
  Q 468.50 287.78 467.50 287.85
  Q 466.37 287.92 467.23 288.66
  Q 467.78 289.14 468.48 289.13
  Q 469.21 289.11 468.86 288.46
  Z
  M 393.31 363.51
  C 383.30 372.83 373.17 382.90 362.18 390.75
  C 315.45 424.10 253.02 434.52 197.72 420.16
  Q 173.58 413.90 152.63 403.02
  Q 140.87 396.91 129.72 389.77
  C 127.09 388.09 124.10 387.00 120.99 387.30
  Q 108.00 388.55 102.47 400.35
  C 101.19 403.06 101.21 406.39 101.80 409.18
  C 102.70 413.47 108.25 417.20 111.71 419.63
  C 141.21 440.35 174.88 453.64 210.06 459.44
  C 261.09 467.85 314.33 458.40 360.18 434.57
  C 371.23 428.83 383.02 421.00 392.92 413.59
  C 420.76 392.77 443.99 364.62 459.59 332.79
  C 460.70 330.54 460.71 326.26 457.27 326.26
  Q 279.88 326.25 155.09 326.26
  C 152.60 326.26 148.18 327.08 148.22 330.40
  Q 148.36 341.41 148.21 351.97
  C 148.12 357.91 149.72 362.96 156.50 362.96
  Q 274.30 362.98 393.10 362.97
  Q 393.90 362.97 393.31 363.51
  Z"
/>
<path fill="#fff" d="
  M 118.96 91.46
  Q 119.86 91.46 120.75 91.46
  Q 214.27 91.17 327.25 91.27
  C 330.34 91.28 334.29 92.57 335.74 95.62
  Q 336.42 97.06 336.45 100.48
  Q 336.56 112.36 336.41 124.84
  Q 336.38 127.97 333.25 127.97
  L 87.49 127.96
  Q 87.11 127.96 86.87 128.26
  Q 78.70 138.84 72.58 150.52
  C 69.94 155.56 68.11 160.84 65.69 165.97
  Q 65.42 166.53 66.05 166.53
  Q 199.10 166.50 330.66 166.53
  Q 336.22 166.54 336.38 172.24
  Q 336.77 185.40 336.54 196.48
  C 336.48 199.72 336.28 202.97 332.06 202.97
  Q 193.75 202.97 55.83 202.97
  Q 55.30 202.97 55.21 203.49
  Q 47.40 248.88 60.25 293.66
  Q 62.75 302.36 66.81 311.83
  Q 76.13 333.61 88.83 351.95
  Q 90.48 354.33 88.14 355.85
  C 82.52 359.49 77.14 363.10 73.91 368.87
  Q 71.88 372.48 70.03 376.18
  C 68.57 379.10 64.87 377.51 63.38 375.60
  Q 43.60 350.29 32.35 321.86
  Q 28.02 310.91 24.29 298.28
  Q 16.81 272.94 16.24 247.46
  Q 15.61 218.99 18.98 198.13
  Q 20.56 188.31 24.63 172.61
  Q 27.34 162.18 30.58 154.58
  Q 40.27 131.87 49.91 116.08
  Q 55.39 107.09 65.37 94.06
  Q 71.76 85.72 78.28 78.92
  Q 122.18 33.13 183.73 15.35
  Q 207.06 8.60 233.42 6.56
  Q 275.27 3.33 315.99 15.74
  Q 376.59 34.21 419.17 81.26
  C 433.71 97.34 445.70 114.87 455.94 134.88
  C 465.57 153.72 473.12 175.44 476.49 197.04
  C 476.98 200.14 475.37 202.98 472.11 202.98
  Q 456.58 203.00 446.33 202.94
  Q 441.45 202.91 440.10 197.96
  Q 438.31 191.34 436.74 184.96
  Q 433.48 171.64 428.09 159.80
  Q 410.18 120.42 376.97 90.43
  C 351.61 67.51 319.38 51.99 286.16 45.33
  Q 241.95 36.47 196.26 48.64
  Q 190.86 50.07 177.51 55.21
  Q 145.16 67.66 118.64 90.62
  Q 117.66 91.47 118.96 91.46
  Z"
/>
<path fill="#fff" d="
  M 475.77 282.91
  C 473.63 286.86 467.56 288.19 463.54 287.76
  Q 460.95 287.49 458.35 287.49
  Q 308.23 287.50 158.61 287.47
  C 154.21 287.47 148.50 286.93 148.26 281.19
  Q 147.87 271.67 148.03 260.16
  Q 148.12 253.50 152.85 251.50
  Q 155.13 250.53 162.13 250.53
  Q 237.94 250.51 313.75 250.49
  Q 315.84 250.49 318.25 250.50
  Q 392.81 250.74 467.37 250.79
  C 469.43 250.79 474.40 251.22 475.74 252.84
  Q 477.31 254.73 477.38 257.39
  Q 477.66 267.30 477.20 277.01
  Q 477.03 280.57 475.77 282.91
  Z"
/>
<path fill="#fff" d="
  M 468.86 288.46
  Q 469.21 289.11 468.48 289.13
  Q 467.78 289.14 467.23 288.66
  Q 466.37 287.92 467.50 287.85
  Q 468.50 287.78 468.86 288.46
  Z"
/>
<path fill="#fff" d="
  M 393.31 363.51
  Q 393.90 362.97 393.10 362.97
  Q 274.30 362.98 156.50 362.96
  C 149.72 362.96 148.12 357.91 148.21 351.97
  Q 148.36 341.41 148.22 330.40
  C 148.18 327.08 152.60 326.26 155.09 326.26
  Q 279.88 326.25 457.27 326.26
  C 460.71 326.26 460.70 330.54 459.59 332.79
  C 443.99 364.62 420.76 392.77 392.92 413.59
  C 383.02 421.00 371.23 428.83 360.18 434.57
  C 314.33 458.40 261.09 467.85 210.06 459.44
  C 174.88 453.64 141.21 440.35 111.71 419.63
  C 108.25 417.20 102.70 413.47 101.80 409.18
  C 101.21 406.39 101.19 403.06 102.47 400.35
  Q 108.00 388.55 120.99 387.30
  C 124.10 387.00 127.09 388.09 129.72 389.77
  Q 140.87 396.91 152.63 403.02
  Q 173.58 413.90 197.72 420.16
  C 253.02 434.52 315.45 424.10 362.18 390.75
  C 373.17 382.90 383.30 372.83 393.31 363.51
  Z"
/>
</svg>
